<?xml version="1.0" encoding="utf-8"?>
<!-- Generator: Adobe Illustrator 23.0.3, SVG Export Plug-In . SVG Version: 6.00 Build 0)  -->
<svg version="1.1" id="Layer_1" xmlns="http://www.w3.org/2000/svg" xmlns:xlink="http://www.w3.org/1999/xlink" x="0px" y="0px"
	 viewBox="0 0 200 200" style="enable-background:new 0 0 200 200;" xml:space="preserve">
<style type="text/css">
	.st0{fill-rule:evenodd;clip-rule:evenodd;fill:url(#circle-copy_1_);}
	.st1{fill-rule:evenodd;clip-rule:evenodd;}
	.st2{fill:#FFFFFF;}
	.st3{fill-rule:evenodd;clip-rule:evenodd;fill:#FFFFFF;}
</style>
<g id="Icon">
	<g id="Logo" transform="translate(-191.000000, -168.000000)">
		<g id="Group-2" transform="translate(191.000000, 168.000000)">
			
				<linearGradient id="circle-copy_1_" gradientUnits="userSpaceOnUse" x1="-396.7801" y1="598.5967" x2="-395.8638" y2="598.0673" gradientTransform="matrix(188 0 0 -188 74613 112589)">
				<stop  offset="0" style="stop-color:#964CAE;stop-opacity:0.9124"/>
				<stop  offset="1" style="stop-color:#008FBA;stop-opacity:0.9286"/>
			</linearGradient>
			<circle id="circle-copy" class="st0" cx="100" cy="100" r="94"/>
			<path id="Shape" d="M105.8,54.9L105.8,54.9l0.3,0.2v0L105.8,54.9z M105.7,55.1l0.4,0.2v0L105.7,55.1z"/>
			<path d="M105.7,54.9L105.7,54.9L105.7,54.9L105.7,54.9L105.7,54.9L105.7,54.9L105.7,54.9L105.7,54.9z M104,54L104,54L104,54
				L104,54L104,54L104,54L104,54L104,54L104,54L104,54L104,54L104,54L104,54L104,54L104,54L104,54L104,54L104,54z"/>
			<polygon id="Path" class="st1" points="105.7,54.9 105.7,54.9 105.7,54.9 105.7,54.9 105.7,55 105.7,55 105.7,54.9 			"/>
			<polygon points="103.9,54 103.9,54 104,54 104,54 104.1,54 104.2,54 104.2,54 104.2,54.1 104.2,54 			"/>
			<polygon points="103.9,54 103.9,54 104,54 104,54 104.1,54 104.2,54 104.2,54 104.2,54.1 104.2,54 			"/>
			<path d="M104,54L104,54L104,54L104,54l0.2,0.1l0,0h0l0,0V54H104z M104.3,54.1L104.3,54.1L104.3,54.1l-0.1-0.1v0h-0.1v0h0l-0.1,0
				l0,0l-0.1,0L104,54l0.1,0l0.1,0.1L104.3,54.1L104.3,54.1L104.3,54.1L104.3,54.1L104.3,54.1L104.3,54.1z"/>
			<path d="M104,54L104,54L104,54L104,54l0.2,0.1l0,0h0l0,0V54H104z M104.3,54.1L104.3,54.1L104.3,54.1l-0.1-0.1v0h-0.1v0h0l-0.1,0
				l0,0l-0.1,0L104,54l0.1,0l0.1,0.1L104.3,54.1L104.3,54.1L104.3,54.1L104.3,54.1L104.3,54.1L104.3,54.1z"/>
			<path d="M104,54L104,54L104,54L104,54l0.2,0.1l0,0h0l0,0V54H104z M104.3,54.1L104.3,54.1L104.3,54.1l-0.1-0.1v0h-0.1v0h0l-0.1,0
				l0,0l-0.1,0L104,54l0.1,0l0.1,0.1L104.3,54.1L104.3,54.1L104.3,54.1L104.3,54.1L104.3,54.1L104.3,54.1z"/>
			<path d="M104,54L104,54L104,54L104,54l0.2,0.1l0,0h0l0,0V54H104z M104.3,54.1L104.3,54.1L104.3,54.1l-0.1-0.1v0h-0.1v0h0l-0.1,0
				l0,0l-0.1,0L104,54l0.1,0l0.1,0.1L104.3,54.1L104.3,54.1L104.3,54.1L104.3,54.1L104.3,54.1L104.3,54.1z"/>
			<path d="M104,54L104,54L104,54L104,54l0.2,0.1l0,0h0l0,0V54H104z M104.3,54.1L104.3,54.1L104.3,54.1l-0.1-0.1v0h-0.1v0h0l-0.1,0
				l0,0l-0.1,0L104,54l0.1,0l0.1,0.1L104.3,54.1L104.3,54.1L104.3,54.1L104.3,54.1L104.3,54.1L104.3,54.1z"/>
			<path d="M104,54L104,54L104,54L104,54l0.2,0.1l0,0h0l0,0V54H104z M104.3,54.1L104.3,54.1L104.3,54.1l-0.1-0.1v0h-0.1v0h0l-0.1,0
				l0,0l-0.1,0L104,54l0.1,0l0.1,0.1L104.3,54.1L104.3,54.1L104.3,54.1L104.3,54.1L104.3,54.1L104.3,54.1z"/>
			<path d="M104,54L104,54L104,54L104,54l0.2,0.1l0,0h0l0,0V54H104z M104.3,54.1L104.3,54.1L104.3,54.1l-0.1-0.1v0h-0.1v0h0l-0.1,0
				l0,0l-0.1,0L104,54l0.1,0l0.1,0.1L104.3,54.1L104.3,54.1L104.3,54.1L104.3,54.1L104.3,54.1L104.3,54.1z"/>
			<path d="M104,54L104,54L104,54L104,54l0.2,0.1l0,0h0l0,0V54H104z M104.3,54.1L104.3,54.1L104.3,54.1l-0.1-0.1v0h-0.1v0h0l-0.1,0
				l0,0l-0.1,0L104,54l0.1,0l0.1,0.1L104.3,54.1L104.3,54.1L104.3,54.1L104.3,54.1L104.3,54.1L104.3,54.1z"/>
			<path d="M104,54L104,54L104,54L104,54l0.2,0.1l0,0h0l0,0V54H104z M104.3,54.1L104.3,54.1L104.3,54.1l-0.1-0.1v0h-0.1v0h0l-0.1,0
				l0,0l-0.1,0L104,54l0.1,0l0.1,0.1L104.3,54.1L104.3,54.1L104.3,54.1L104.3,54.1L104.3,54.1L104.3,54.1z"/>
			<path d="M104,54L104,54L104,54L104,54l0.2,0.1l0,0h0l0,0V54H104z M104.3,54.1L104.3,54.1L104.3,54.1l-0.1-0.1v0h-0.1v0h0l-0.1,0
				l0,0l-0.1,0L104,54l0.1,0l0.1,0.1L104.3,54.1L104.3,54.1L104.3,54.1L104.3,54.1L104.3,54.1L104.3,54.1z"/>
			<path d="M105.8,54.9L105.8,54.9L105.8,54.9L105.8,54.9L105.8,54.9L105.8,54.9L105.8,54.9L105.8,54.9L105.8,54.9L105.8,54.9
				L105.8,54.9L105.8,54.9L105.8,54.9z M103.9,54L103.9,54L103.9,54L103.9,54L103.9,54L103.9,54L103.9,54L103.9,54L103.9,54
				L103.9,54z M104,54L104,54L104,54L104,54L104,54L104,54L104,54L104,54L104,54L104,54L104,54L104,54L104,54L104,54L104,54L104,54
				L104,54L104,54L104,54L104,54z"/>
			<path d="M104,54L104,54L104,54L104,54L104,54L104,54L104,54L104,54L104,54L104,54L104,54L104,54L104,54z M104,54L104,54L104,54
				L104,54L104,54L104,54L104,54L104,54L104,54L104,54L104,54L104,54L104,54L104,54L104,54L104,54L104,54L104,54L104,54L104,54z
				 M105.4,54.8L105.4,54.8L105.4,54.8L105.4,54.8z M105.8,54.9L105.8,54.9L105.8,54.9L105.8,54.9L105.8,54.9L105.8,54.9L105.8,54.9
				L105.8,54.9L105.8,54.9L105.8,54.9z"/>
			<polygon points="105.5,54.8 105.4,54.8 106,55 			"/>
			<polygon points="105.5,54.8 105.4,54.8 106,55 			"/>
			<path d="M105.9,54.8L105.9,54.8l0.2,0.3L105.9,54.8z M105.2,55L105.2,55l0.1-0.1l-0.1-0.1l0,0L105.2,55l0.1,0.3L105.2,55z"/>
			<polygon points="105.3,54.8 105.2,54.8 105.3,55 105.3,54.9 105.4,54.9 105.4,54.8 			"/>
			<polygon class="st1" points="105.7,54.9 105.7,54.9 105.7,54.9 105.7,54.9 105.7,54.9 105.7,54.9 105.7,54.9 105.7,54.9 			"/>
			<polygon class="st1" points="105.7,54.9 105.7,54.9 105.7,54.9 105.7,54.9 105.7,54.9 105.7,54.9 105.7,54.9 105.7,54.9 
				105.8,54.9 105.8,54.9 105.8,54.9 			"/>
			<polygon class="st1" points="105.7,54.9 105.7,54.9 105.7,54.9 105.7,54.9 105.7,54.9 105.7,54.9 			"/>
			<polygon class="st1" points="105.7,54.9 105.7,54.9 105.7,54.9 105.7,54.9 105.7,54.9 105.7,54.9 			"/>
			<polygon points="105.7,54.9 105.8,55 105.8,55 105.9,55.2 106,55.2 106,55 			"/>
			<polygon points="105.7,54.9 105.8,55 105.8,55 105.9,55.2 106,55.2 106,55 			"/>
			<polygon points="105.7,54.9 105.8,55 105.8,55 105.9,55.2 106,55.2 106,55 			"/>
			<polygon points="105.7,54.9 105.8,55 105.8,55 105.9,55.2 106,55.2 106,55 			"/>
			<path class="st2" d="M164.7,82.8c-1.9,0-3.7,0.6-5.2,1.6l-53.7-29.4V55l-0.1-0.1l0.1,0l0.1,0v0v0l0-0.1h0h0h0v0l0,0h0v0
				c-0.4-10.9-9.4-19.7-20.4-19.7C74.1,35.1,65,44.3,65,55.6c0,6.2,2.7,11.7,7,15.4L55.1,84.3c-1.4-0.9-3.2-1.5-5-1.5
				c-5.1,0-9.3,4.2-9.3,9.3c0,5.2,4.2,9.3,9.3,9.3c5.1,0,9.3-4.2,9.3-9.3c0-2-0.6-3.8-1.7-5.3L75,73.2c3,1.8,6.6,2.8,10.3,2.8
				c3.6,0,7-1,10-2.6l9.4,10.2c-4.6,3.3-7.5,8.7-7.5,14.8c0,4.6,1.7,8.9,4.6,12.1l-21.2,20.2c-3-2.3-6.7-3.7-10.7-3.7
				c-9.6,0-17.4,7.8-17.4,17.5c0,9.6,7.8,17.5,17.4,17.5c8.6,0,15.7-6.3,17.1-14.5h27.5c0.8,7,6.8,12.4,14,12.4
				c7.8,0,14.1-6.3,14.1-14.1c0-7.8-6.3-14.1-14.1-14.1c-7.1,0-13.1,5.4-13.9,12.3H87.2c-0.1-4.1-1.6-7.8-4.1-10.7l21.3-20.2
				c3,2.3,6.8,3.7,10.9,3.7c10,0,18.2-8.2,18.2-18.3s-8.1-18.2-18.2-18.2c-2.7,0-5.2,0.6-7.4,1.6l-9.6-10.4
				c3.7-3.1,6.3-7.4,7.1-12.4l-0.1,0v0c0,0,0,0,0,0v0l0.1,0l0,0l0,0L156.9,87h0l0,0c-1,1.5-1.5,3.2-1.5,5.1c0,5.2,4.2,9.3,9.3,9.3
				c5.1,0,9.3-4.2,9.3-9.3C174,87,169.8,82.8,164.7,82.8z M50.1,97.9c-3.2,0-5.7-2.6-5.7-5.7s2.6-5.7,5.7-5.7c3.1,0,5.7,2.6,5.7,5.7
				S53.2,97.9,50.1,97.9z M69.8,156.5c-6.6,0-12-5.4-12-12.1c0-6.7,5.4-12.1,12-12.1c6.6,0,12,5.4,12,12.1
				C81.8,151.1,76.4,156.5,69.8,156.5z M128.4,137c4.8,0,8.7,3.9,8.7,8.7c0,4.8-3.9,8.7-8.7,8.7c-4.8,0-8.7-3.9-8.7-8.7
				C119.7,140.9,123.6,137,128.4,137z M115.3,85.5c7,0,12.8,5.8,12.8,12.9c0,7.1-5.7,12.8-12.8,12.8c-7,0-12.8-5.8-12.8-12.8
				C102.6,91.3,108.3,85.5,115.3,85.5z M85.3,70.7c-8.3,0-15-6.8-15-15.1s6.7-15.1,15-15.1s15,6.8,15,15.1S93.6,70.7,85.3,70.7z
				 M104,54L104,54L104,54L104,54L104,54L104,54L104,54L104,54L104,54L104,54L104,54L104,54L104,54L104,54L104,54L104,54L104,54
				L104,54L104,54L104,54z M104,54L104,54L104,54L104,54L104,54L104,54L104,54L104,54L104,54L104,54L104,54z M105.2,54.8L105.2,54.8
				L105.2,54.8L105.2,54.8L105.2,54.8L105.2,54.8L105.2,54.8L105.2,54.8z M105.4,54.8L105.4,54.8l0.1,0L105.4,54.8z M164.7,97.9
				c-3.2,0-5.7-2.6-5.7-5.7s2.6-5.7,5.7-5.7c3.1,0,5.7,2.6,5.7,5.7S167.8,97.9,164.7,97.9z"/>
			<ellipse id="Oval" class="st3" cx="142.9" cy="58" rx="4.7" ry="4.8"/>
			<path class="st3" d="M115.2,127.1c0,3.3-2.6,5.9-5.9,5.9c-3.2,0-5.9-2.6-5.9-5.9c0-3.3,2.6-5.9,5.9-5.9
				C112.6,121.2,115.2,123.9,115.2,127.1z"/>
			<path class="st3" d="M56.8,62.8c0,2.6-2.1,4.8-4.7,4.8c-2.6,0-4.7-2.1-4.7-4.8c0-2.6,2.1-4.8,4.7-4.8
				C54.7,58,56.8,60.1,56.8,62.8z"/>
			<ellipse class="st3" cx="147.8" cy="118.8" rx="3.6" ry="3.6"/>
			<path class="st3" d="M80.1,110.5c0,2.8-2.2,5-5,5c-2.7,0-5-2.2-5-5c0-2.8,2.2-5,5-5C77.9,105.5,80.1,107.8,80.1,110.5z"/>
			<path class="st3" d="M58.9,113.4c0,2.1-1.7,3.8-3.8,3.8c-2.1,0-3.8-1.7-3.8-3.8c0-2.1,1.7-3.8,3.8-3.8
				C57.2,109.6,58.9,111.3,58.9,113.4z"/>
			<ellipse class="st3" cx="39.3" cy="76.9" rx="3.3" ry="3.3"/>
			<ellipse class="st3" cx="99.5" cy="157.6" rx="3.3" ry="3.3"/>
			<ellipse class="st3" cx="138.4" cy="89.3" rx="3.3" ry="3.3"/>
			<ellipse class="st3" cx="77.8" cy="88.9" rx="3.3" ry="3.3"/>
			<ellipse class="st3" cx="115.7" cy="47.1" rx="3.3" ry="3.3"/>
		</g>
	</g>
</g>
</svg>
